<svg width="362" height="140" viewBox="0 0 362 140" fill="none" xmlns="http://www.w3.org/2000/svg">
<g filter="url(#filter0_i_3_9)">
<path d="M26.4503 55.5657V46.8182H67.6641V55.5657H52.3008V97H41.8136V55.5657H26.4503ZM74.2553 97V59.3636H84.6935V97H74.2553ZM79.4989 54.5121C77.9471 54.5121 76.6158 53.9975 75.505 52.9684C74.4105 51.9229 73.8633 50.6733 73.8633 49.2195C73.8633 47.782 74.4105 46.5486 75.505 45.5195C76.6158 44.4741 77.9471 43.9513 79.4989 43.9513C81.0508 43.9513 82.3739 44.4741 83.4684 45.5195C84.5792 46.5486 85.1346 47.782 85.1346 49.2195C85.1346 50.6733 84.5792 51.9229 83.4684 52.9684C82.3739 53.9975 81.0508 54.5121 79.4989 54.5121ZM113.294 59.3636V67.2045H90.0658V59.3636H113.294ZM95.3829 97V56.6438C95.3829 53.9158 95.9138 51.6534 96.9756 49.8565C98.0537 48.0597 99.5239 46.712 101.386 45.8136C103.248 44.9151 105.364 44.4659 107.732 44.4659C109.333 44.4659 110.795 44.5884 112.118 44.8335C113.458 45.0785 114.454 45.299 115.108 45.495L113.245 53.3359C112.837 53.2053 112.331 53.0827 111.726 52.9684C111.138 52.854 110.534 52.7969 109.913 52.7969C108.378 52.7969 107.308 53.1562 106.703 53.875C106.099 54.5774 105.797 55.5657 105.797 56.8398V97H95.3829ZM139.911 59.3636V67.2045H116.682V59.3636H139.911ZM121.999 97V56.6438C121.999 53.9158 122.53 51.6534 123.592 49.8565C124.67 48.0597 126.14 46.712 128.002 45.8136C129.865 44.9151 131.98 44.4659 134.349 44.4659C135.949 44.4659 137.411 44.5884 138.735 44.8335C140.074 45.0785 141.07 45.299 141.724 45.495L139.862 53.3359C139.453 53.2053 138.947 53.0827 138.343 52.9684C137.754 52.854 137.15 52.7969 136.529 52.7969C134.994 52.7969 133.924 53.1562 133.319 53.875C132.715 54.5774 132.413 55.5657 132.413 56.8398V97H121.999ZM146.288 97V59.3636H156.726V97H146.288ZM151.531 54.5121C149.979 54.5121 148.648 53.9975 147.537 52.9684C146.443 51.9229 145.896 50.6733 145.896 49.2195C145.896 47.782 146.443 46.5486 147.537 45.5195C148.648 44.4741 149.979 43.9513 151.531 43.9513C153.083 43.9513 154.406 44.4741 155.501 45.5195C156.611 46.5486 157.167 47.782 157.167 49.2195C157.167 50.6733 156.611 51.9229 155.501 52.9684C154.406 53.9975 153.083 54.5121 151.531 54.5121ZM175.526 75.2415V97H165.087V59.3636H175.036V66.0039H175.477C176.31 63.815 177.706 62.0834 179.667 60.8093C181.627 59.5188 184.004 58.8736 186.797 58.8736C189.411 58.8736 191.689 59.4453 193.633 60.5888C195.577 61.7322 197.088 63.3658 198.166 65.4893C199.244 67.5966 199.783 70.1122 199.783 73.0362V97H189.345V74.8984C189.362 72.5952 188.773 70.7983 187.581 69.5078C186.388 68.201 184.747 67.5476 182.656 67.5476C181.251 67.5476 180.01 67.8498 178.931 68.4542C177.87 69.0586 177.037 69.9407 176.432 71.1005C175.844 72.244 175.542 73.6243 175.526 75.2415ZM208.206 97V46.8182H228.299C231.99 46.8182 235.07 47.3654 237.536 48.4599C240.003 49.5543 241.857 51.0735 243.098 53.0174C244.34 54.945 244.96 57.1665 244.96 59.6822C244.96 61.6424 244.568 63.3658 243.784 64.8523C243 66.3224 241.922 67.5312 240.55 68.4787C239.194 69.4098 237.642 70.0714 235.894 70.4634V70.9535C237.806 71.0352 239.594 71.5742 241.261 72.5707C242.943 73.5671 244.307 74.9638 245.353 76.7607C246.398 78.5412 246.921 80.6648 246.921 83.1314C246.921 85.794 246.259 88.1708 244.936 90.2617C243.629 92.3363 241.693 93.978 239.129 95.1868C236.564 96.3956 233.403 97 229.646 97H208.206ZM218.816 88.326H227.465C230.422 88.326 232.578 87.7624 233.934 86.6353C235.29 85.4918 235.968 83.9727 235.968 82.0778C235.968 80.6893 235.633 79.4641 234.963 78.4023C234.294 77.3406 233.338 76.5075 232.097 75.9031C230.871 75.2986 229.409 74.9964 227.71 74.9964H218.816V88.326ZM218.816 67.8171H226.681C228.135 67.8171 229.426 67.5639 230.553 67.0575C231.696 66.5348 232.595 65.7997 233.248 64.8523C233.918 63.9048 234.253 62.7695 234.253 61.4464C234.253 59.6332 233.608 58.1712 232.317 57.0604C231.043 55.9496 229.23 55.3942 226.877 55.3942H218.816V67.8171ZM270.633 97.7351C266.827 97.7351 263.536 96.9265 260.759 95.3093C257.998 93.6758 255.866 91.4052 254.363 88.4975C252.861 85.5735 252.109 82.1839 252.109 78.3288C252.109 74.4411 252.861 71.0433 254.363 68.1357C255.866 65.2116 257.998 62.941 260.759 61.3239C263.536 59.6903 266.827 58.8736 270.633 58.8736C274.439 58.8736 277.723 59.6903 280.483 61.3239C283.26 62.941 285.4 65.2116 286.903 68.1357C288.406 71.0433 289.157 74.4411 289.157 78.3288C289.157 82.1839 288.406 85.5735 286.903 88.4975C285.4 91.4052 283.26 93.6758 280.483 95.3093C277.723 96.9265 274.439 97.7351 270.633 97.7351ZM270.682 89.6491C272.414 89.6491 273.86 89.1591 275.019 88.179C276.179 87.1825 277.053 85.8267 277.641 84.1115C278.246 82.3963 278.548 80.4442 278.548 78.2553C278.548 76.0664 278.246 74.1143 277.641 72.3991C277.053 70.6839 276.179 69.3281 275.019 68.3317C273.86 67.3352 272.414 66.837 270.682 66.837C268.934 66.837 267.464 67.3352 266.272 68.3317C265.096 69.3281 264.205 70.6839 263.601 72.3991C263.013 74.1143 262.719 76.0664 262.719 78.2553C262.719 80.4442 263.013 82.3963 263.601 84.1115C264.205 85.8267 265.096 87.1825 266.272 88.179C267.464 89.1591 268.934 89.6491 270.682 89.6491ZM303.32 59.3636L310.23 72.5217L317.311 59.3636H328.019L317.115 78.1818L328.313 97H317.654L310.23 83.989L302.928 97H292.147L303.32 78.1818L292.539 59.3636H303.32Z" fill="#FC8019"/>
<line x1="24" y1="40.5" x2="334" y2="40.5" stroke="black"/>
<line x1="24" y1="104.5" x2="334" y2="104.5" stroke="black"/>
</g>
<defs>
<filter id="filter0_i_3_9" x="24" y="40" width="319" height="69" filterUnits="userSpaceOnUse" color-interpolation-filters="sRGB">
<feFlood flood-opacity="0" result="BackgroundImageFix"/>
<feBlend mode="normal" in="SourceGraphic" in2="BackgroundImageFix" result="shape"/>
<feColorMatrix in="SourceAlpha" type="matrix" values="0 0 0 0 0 0 0 0 0 0 0 0 0 0 0 0 0 0 127 0" result="hardAlpha"/>
<feOffset dx="11" dy="4"/>
<feGaussianBlur stdDeviation="4.5"/>
<feComposite in2="hardAlpha" operator="arithmetic" k2="-1" k3="1"/>
<feColorMatrix type="matrix" values="0 0 0 0 0 0 0 0 0 0 0 0 0 0 0 0 0 0 0.25 0"/>
<feBlend mode="normal" in2="shape" result="effect1_innerShadow_3_9"/>
</filter>
</defs>
</svg>
